<?xml version="1.0" encoding="UTF-8" standalone="no"?>
<svg
   xmlns:dc="http://purl.org/dc/elements/1.1/"
   xmlns:cc="http://creativecommons.org/ns#"
   xmlns:rdf="http://www.w3.org/1999/02/22-rdf-syntax-ns#"
   xmlns:svg="http://www.w3.org/2000/svg"
   xmlns="http://www.w3.org/2000/svg"
   xmlns:sodipodi="http://sodipodi.sourceforge.net/DTD/sodipodi-0.dtd"
   xmlns:inkscape="http://www.inkscape.org/namespaces/inkscape"
   inkscape:version="1.0 (4035a4fb49, 2020-05-01)"
   id="svg8"
   version="1.1"
   viewBox="0 0 210 297"
   height="297mm"
   width="210mm"
   sodipodi:docname="Wave_Vector.svg"
   inkscape:export-filename="C:\Users\Odyssey\Desktop\Creative\Render\Wave_Vector.png"
   inkscape:export-xdpi="221.46001"
   inkscape:export-ydpi="221.46001">
  <defs
     id="defs2" />
  <sodipodi:namedview
     inkscape:showpageshadow="true"
     showborder="false"
     showgrid="false"
     inkscape:document-rotation="0"
     inkscape:current-layer="layer1"
     inkscape:document-units="mm"
     inkscape:cy="4005.6729"
     inkscape:cx="3092.8861"
     inkscape:zoom="0.13516457"
     inkscape:pageshadow="2"
     inkscape:pageopacity="0.0"
     borderopacity="1.0"
     bordercolor="#666666"
     pagecolor="#ffffff"
     id="base"
     inkscape:snap-smooth-nodes="true"
     inkscape:window-width="1920"
     inkscape:window-height="1017"
     inkscape:window-x="-8"
     inkscape:window-y="-8"
     inkscape:window-maximized="1" />
  <metadata
     id="metadata5">
    <rdf:RDF>
      <cc:Work
         rdf:about="">
        <dc:format>image/svg+xml</dc:format>
        <dc:type
           rdf:resource="http://purl.org/dc/dcmitype/StillImage" />
        <dc:title />
      </cc:Work>
    </rdf:RDF>
  </metadata>
  <g
     id="layer1"
     inkscape:groupmode="layer"
     inkscape:label="Layer 1">
    <g
       inkscape:export-ydpi="81.743362"
       inkscape:export-xdpi="81.743362"
       inkscape:export-filename="C:\Users\Odyssey\Desktop\Creative\Render\Wavey_2.png"
       transform="translate(651.84429,234.89884)"
       id="g1250">
      <rect
         style="fill:#aaeeff;stroke-width:26.4583;stroke-linecap:round;stop-color:#000000"
         id="rect1239"
         width="1058.3416"
         height="1058.3292"
         x="-344.18793"
         y="367.36594" />
      <g
         id="use879"
         inkscape:tile-x0="641.202"
         inkscape:tile-y0="413.18926"
         transform="translate(-191.63378,747.92361)">
        <path
           id="path1019"
           style="color:#000000;font-style:normal;font-variant:normal;font-weight:normal;font-stretch:normal;font-size:medium;line-height:normal;font-family:sans-serif;font-variant-ligatures:normal;font-variant-position:normal;font-variant-caps:normal;font-variant-numeric:normal;font-variant-alternates:normal;font-variant-east-asian:normal;font-feature-settings:normal;font-variation-settings:normal;text-indent:0;text-align:start;text-decoration:none;text-decoration-line:none;text-decoration-style:solid;text-decoration-color:#000000;letter-spacing:normal;word-spacing:normal;text-transform:none;writing-mode:lr-tb;direction:ltr;text-orientation:mixed;dominant-baseline:auto;baseline-shift:baseline;text-anchor:start;white-space:normal;shape-padding:0;shape-margin:0;inline-size:0;clip-rule:nonzero;display:inline;overflow:visible;visibility:visible;opacity:1;isolation:auto;mix-blend-mode:normal;color-interpolation:sRGB;color-interpolation-filters:linearRGB;solid-color:#000000;solid-opacity:1;vector-effect:none;fill:#ff7f2a;fill-opacity:1;fill-rule:nonzero;stroke:none;stroke-width:26.4583;stroke-linecap:round;stroke-linejoin:miter;stroke-miterlimit:4;stroke-dasharray:none;stroke-dashoffset:0;stroke-opacity:1;color-rendering:auto;image-rendering:auto;shape-rendering:auto;text-rendering:auto;enable-background:accumulate;stop-color:#000000;stop-opacity:1"
           d="m 654.43221,413.18928 c 0,4.56116 0.1251,9.0932 0.36587,13.59504 -4.50194,-0.24175 -9.0346,-0.36637 -13.59607,-0.36637 v 26.45883 c 5.53482,0 11.02175,0.2008 16.45534,0.59272 1.48926,9.21822 3.48102,18.26935 5.9464,27.12498 -7.35446,-0.83042 -14.82857,-1.2604 -22.40174,-1.2604 v 26.45887 c 10.97294,0 21.69973,1.02949 32.09571,2.98481 4.50355,10.92147 9.75481,21.4575 15.69,31.54485 -14.97579,-5.2256 -31.05541,-8.07083 -47.78571,-8.07083 v 26.4573 c 65.91308,0 119.0625,53.14942 119.0625,119.0625 h 26.45884 c 0,-16.72942 -2.84531,-32.80849 -8.0703,-47.78364 10.08878,5.93595 20.62692,11.18711 31.55,15.69103 1.95485,10.3945 2.97916,21.12129 2.97916,32.09261 h 26.4573 c 0,-7.57314 -0.43019,-15.04691 -1.2609,-22.40121 8.8564,2.46568 17.90848,4.45802 27.12755,5.94744 0.39171,5.4329 0.59219,10.91961 0.59219,16.45377 h 26.45886 c 0,-4.56104 -0.12406,-9.09352 -0.36587,-13.59503 4.50221,0.24082 9.03457,0.36639 13.59607,0.36639 v -26.45886 c -124.36324,0 -224.89634,-100.53156 -224.89634,-224.8948 z m 52.9177,0 c 0,109.4373 89.0002,198.4375 198.4375,198.4375 v -26.45883 c -95.13819,0 -171.9802,-76.84048 -171.9802,-171.97867 z m 52.91616,0 c 0,80.2122 65.30912,145.51978 145.52134,145.5198 v -26.4573 c -65.91308,0 -119.0625,-53.14942 -119.0625,-119.0625 z m 52.91614,0 c 0,50.98717 41.61803,92.60367 92.6052,92.60367 v -26.45887 c -36.688,0 -66.14634,-29.4568 -66.14634,-66.1448 z m 52.9177,0 c 0,21.76214 17.92536,39.6875 39.6875,39.6875 v -26.45883 c -7.46295,0 -13.2302,-5.76572 -13.2302,-13.22867 z m -224.8979,171.97867 v 26.45883 c 36.688,0 66.14634,29.4568 66.14634,66.1448 h 26.45886 c 0,-50.98716 -41.61803,-92.60363 -92.6052,-92.60363 z m 0,52.91613 v 26.45886 c 7.46295,0 13.2302,5.7657 13.2302,13.22864 h 26.4573 c 0,-21.76214 -17.92536,-39.6875 -39.6875,-39.6875 z m 2e-5,-224.89481 H 905.78741 V 677.77158 H 641.20203 Z m 13.23018,-264.58229 c 0,4.56116 0.1251,9.0932 0.36587,13.59504 -4.50194,-0.24175 -9.0346,-0.36637 -13.59607,-0.36637 v 26.45883 c 5.53482,0 11.02175,0.2008 16.45534,0.59272 1.48926,9.21822 3.48102,18.26935 5.9464,27.12498 -7.35446,-0.83042 -14.82857,-1.2604 -22.40174,-1.2604 v 26.45887 c 10.97294,0 21.69973,1.02949 32.09571,2.98481 4.50355,10.92147 9.75481,21.4575 15.69,31.54485 -14.97579,-5.2256 -31.05541,-8.07083 -47.78571,-8.07083 v 26.4573 c 65.91308,0 119.0625,53.14942 119.0625,119.0625 h 26.45884 c 0,-16.72942 -2.84531,-32.80849 -8.0703,-47.78364 10.08878,5.93595 20.62692,11.18711 31.55,15.69103 1.95485,10.3945 2.97916,21.12129 2.97916,32.09261 h 26.4573 c 0,-7.57314 -0.43019,-15.04691 -1.2609,-22.40121 8.8564,2.46568 17.90848,4.45802 27.12755,5.94744 0.39171,5.4329 0.59219,10.91961 0.59219,16.45377 h 26.45886 c 0,-4.56104 -0.12406,-9.09352 -0.36587,-13.59503 4.50221,0.24082 9.03457,0.36639 13.59607,0.36639 v -26.45886 c -124.36324,0 -224.89634,-100.53156 -224.89634,-224.8948 z m 52.9177,0 c 0,109.4373 89.0002,198.4375 198.4375,198.4375 v -26.45883 c -95.13819,0 -171.9802,-76.84048 -171.9802,-171.97867 z m 52.91616,0 c 0,80.2122 65.30912,145.51978 145.52134,145.5198 v -26.4573 c -65.91308,0 -119.0625,-53.14942 -119.0625,-119.0625 z m 52.91614,0 c 0,50.98717 41.61803,92.60367 92.6052,92.60367 v -26.45887 c -36.688,0 -66.14634,-29.4568 -66.14634,-66.1448 z m 52.9177,0 c 0,21.76214 17.92536,39.6875 39.6875,39.6875 v -26.45883 c -7.46295,0 -13.2302,-5.76572 -13.2302,-13.22867 z m -224.8979,171.97867 v 26.45883 c 36.688,0 66.14634,29.4568 66.14634,66.1448 h 26.45886 c 0,-50.98716 -41.61803,-92.60363 -92.6052,-92.60363 z m 0,52.91613 v 26.45886 c 7.46295,0 13.2302,5.7657 13.2302,13.22864 h 26.4573 c 0,-21.76214 -17.92536,-39.6875 -39.6875,-39.6875 z m 2e-5,-224.89481 H 905.78741 V 413.18928 H 641.20203 Z M 389.84681,413.18928 c 0,4.56116 0.1251,9.0932 0.36587,13.59504 -4.50194,-0.24175 -9.0346,-0.36637 -13.59607,-0.36637 v 26.45883 c 5.53482,0 11.02175,0.2008 16.45534,0.59272 1.48926,9.21822 3.48102,18.26935 5.9464,27.12498 -7.35446,-0.83042 -14.82857,-1.2604 -22.40174,-1.2604 v 26.45887 c 10.97294,0 21.69973,1.02949 32.09571,2.98481 4.50355,10.92147 9.75481,21.4575 15.69,31.54485 -14.97579,-5.2256 -31.05541,-8.07083 -47.78571,-8.07083 v 26.4573 c 65.91308,0 119.0625,53.14942 119.0625,119.0625 h 26.45884 c 0,-16.72942 -2.84531,-32.80849 -8.0703,-47.78364 10.08878,5.93595 20.62692,11.18711 31.55,15.69103 1.95485,10.3945 2.97916,21.12129 2.97916,32.09261 h 26.4573 c 0,-7.57314 -0.43019,-15.04691 -1.2609,-22.40121 8.8564,2.46568 17.90848,4.45802 27.12755,5.94744 0.39171,5.4329 0.59219,10.91961 0.59219,16.45377 h 26.45886 c 0,-4.56104 -0.12406,-9.09352 -0.36587,-13.59503 4.50221,0.24082 9.03457,0.36639 13.59607,0.36639 v -26.45886 c -124.36324,0 -224.89634,-100.53156 -224.89634,-224.8948 z m 52.9177,0 c 0,109.4373 89.0002,198.4375 198.4375,198.4375 v -26.45883 c -95.13819,0 -171.9802,-76.84048 -171.9802,-171.97867 z m 52.91616,0 c 0,80.2122 65.30912,145.51978 145.52134,145.5198 v -26.4573 c -65.91308,0 -119.0625,-53.14942 -119.0625,-119.0625 z m 52.91614,0 c 0,50.98717 41.61803,92.60367 92.6052,92.60367 v -26.45887 c -36.688,0 -66.14634,-29.4568 -66.14634,-66.1448 z m 52.9177,0 c 0,21.76214 17.92536,39.6875 39.6875,39.6875 v -26.45883 c -7.46295,0 -13.2302,-5.76572 -13.2302,-13.22867 z m -224.8979,171.97867 v 26.45883 c 36.688,0 66.14634,29.4568 66.14634,66.1448 h 26.45886 c 0,-50.98716 -41.61803,-92.60363 -92.6052,-92.60363 z m 0,52.91613 v 26.45886 c 7.46295,0 13.2302,5.7657 13.2302,13.22864 h 26.4573 c 0,-21.76214 -17.92536,-39.6875 -39.6875,-39.6875 z m 2e-5,-224.89481 H 641.20201 V 677.77158 H 376.61663 Z m 13.23018,-264.58229 c 0,4.56116 0.1251,9.0932 0.36587,13.59504 -4.50194,-0.24175 -9.0346,-0.36637 -13.59607,-0.36637 v 26.45883 c 5.53482,0 11.02175,0.2008 16.45534,0.59272 1.48926,9.21822 3.48102,18.26935 5.9464,27.12498 -7.35446,-0.83042 -14.82857,-1.2604 -22.40174,-1.2604 v 26.45887 c 10.97294,0 21.69973,1.02949 32.09571,2.98481 4.50355,10.92147 9.75481,21.4575 15.69,31.54485 -14.97579,-5.2256 -31.05541,-8.07083 -47.78571,-8.07083 v 26.4573 c 65.91308,0 119.0625,53.14942 119.0625,119.0625 h 26.45884 c 0,-16.72942 -2.84531,-32.80849 -8.0703,-47.78364 10.08878,5.93595 20.62692,11.18711 31.55,15.69103 1.95485,10.3945 2.97916,21.12129 2.97916,32.09261 h 26.4573 c 0,-7.57314 -0.43019,-15.04691 -1.2609,-22.40121 8.8564,2.46568 17.90848,4.45802 27.12755,5.94744 0.39171,5.4329 0.59219,10.91961 0.59219,16.45377 h 26.45886 c 0,-4.56104 -0.12406,-9.09352 -0.36587,-13.59503 4.50221,0.24082 9.03457,0.36639 13.59607,0.36639 v -26.45886 c -124.36324,0 -224.89634,-100.53156 -224.89634,-224.8948 z m 52.9177,0 c 0,109.4373 89.0002,198.4375 198.4375,198.4375 v -26.45883 c -95.13819,0 -171.9802,-76.84048 -171.9802,-171.97867 z m 52.91616,0 c 0,80.2122 65.30912,145.51978 145.52134,145.5198 v -26.4573 c -65.91308,0 -119.0625,-53.14942 -119.0625,-119.0625 z m 52.91614,0 c 0,50.98717 41.61803,92.60367 92.6052,92.60367 v -26.45887 c -36.688,0 -66.14634,-29.4568 -66.14634,-66.1448 z m 52.9177,0 c 0,21.76214 17.92536,39.6875 39.6875,39.6875 v -26.45883 c -7.46295,0 -13.2302,-5.76572 -13.2302,-13.22867 z m -224.8979,171.97867 v 26.45883 c 36.688,0 66.14634,29.4568 66.14634,66.1448 h 26.45886 c 0,-50.98716 -41.61803,-92.60363 -92.6052,-92.60363 z m 0,52.91613 v 26.45886 c 7.46295,0 13.2302,5.7657 13.2302,13.22864 h 26.4573 c 0,-21.76214 -17.92536,-39.6875 -39.6875,-39.6875 z m 2e-5,-224.89481 H 641.20201 V 413.18928 H 376.61663 Z m 13.23018,1e-5 c 0,4.56116 0.1251,9.0932 0.36587,13.59504 -4.50194,-0.24175 -9.0346,-0.36637 -13.59607,-0.36637 v 26.45883 c 5.53482,0 11.02175,0.2008 16.45534,0.59272 1.48926,9.21822 3.48102,18.26935 5.9464,27.12498 -7.35446,-0.83042 -14.82857,-1.2604 -22.40174,-1.2604 v 26.45887 c 10.97294,0 21.69973,1.02949 32.09571,2.98481 4.50355,10.92147 9.75481,21.4575 15.69,31.54485 -14.97579,-5.2256 -31.05541,-8.07083 -47.78571,-8.07083 v 26.4573 c 65.91308,0 119.0625,53.14942 119.0625,119.0625 h 26.45884 c 0,-16.72942 -2.84531,-32.80849 -8.0703,-47.78364 10.08878,5.93595 20.62692,11.18711 31.55,15.69103 1.95485,10.3945 2.97916,21.12129 2.97916,32.09261 h 26.4573 c 0,-7.57314 -0.43019,-15.04691 -1.2609,-22.40121 8.8564,2.46568 17.90848,4.45802 27.12755,5.94744 0.39171,5.4329 0.59219,10.91961 0.59219,16.45377 h 26.45886 c 0,-4.56104 -0.12406,-9.09352 -0.36587,-13.59503 4.50221,0.24082 9.03457,0.36639 13.59607,0.36639 v -26.45886 c -124.36324,0 -224.89634,-100.53156 -224.89634,-224.8948 z m 52.9177,0 c 0,109.4373 89.0002,198.4375 198.4375,198.4375 v -26.45883 c -95.13819,0 -171.9802,-76.84048 -171.9802,-171.97867 z m 52.91616,0 c 0,80.2122 65.30912,145.51978 145.52134,145.5198 v -26.4573 c -65.91308,0 -119.0625,-53.14942 -119.0625,-119.0625 z m 52.91614,0 c 0,50.98717 41.61803,92.60367 92.6052,92.60367 v -26.45887 c -36.688,0 -66.14634,-29.4568 -66.14634,-66.1448 z m 52.9177,0 c 0,21.76214 17.92536,39.6875 39.6875,39.6875 v -26.45883 c -7.46295,0 -13.2302,-5.76572 -13.2302,-13.22867 z m -224.8979,171.97867 v 26.45883 c 36.688,0 66.14634,29.4568 66.14634,66.1448 h 26.45886 c 0,-50.98716 -41.61803,-92.60363 -92.6052,-92.60363 z m 0,52.91613 v 26.45886 c 7.46295,0 13.2302,5.7657 13.2302,13.22864 h 26.4573 c 0,-21.76214 -17.92536,-39.6875 -39.6875,-39.6875 z m 2e-5,-224.89481 H 641.20201 V 413.18928 H 376.61663 Z M 125.26141,413.18928 c 0,4.56116 0.1251,9.0932 0.36587,13.59504 -4.50194,-0.24175 -9.0346,-0.36637 -13.59607,-0.36637 v 26.45883 c 5.53482,0 11.02175,0.2008 16.45534,0.59272 1.48926,9.21822 3.48102,18.26935 5.9464,27.12498 -7.35446,-0.83042 -14.82857,-1.2604 -22.40174,-1.2604 v 26.45887 c 10.97294,0 21.69973,1.02949 32.09571,2.98481 4.50355,10.92147 9.75481,21.4575 15.69,31.54485 -14.97579,-5.2256 -31.05541,-8.07083 -47.78571,-8.07083 v 26.4573 c 65.91308,0 119.0625,53.14942 119.0625,119.0625 h 26.45884 c 0,-16.72942 -2.84531,-32.80849 -8.0703,-47.78364 10.08878,5.93595 20.62692,11.18711 31.55,15.69103 1.95485,10.3945 2.97916,21.12129 2.97916,32.09261 h 26.4573 c 0,-7.57314 -0.43019,-15.04691 -1.2609,-22.40121 8.8564,2.46568 17.90848,4.45802 27.12755,5.94744 0.39171,5.4329 0.59219,10.91961 0.59219,16.45377 h 26.45886 c 0,-4.56104 -0.12406,-9.09352 -0.36587,-13.59503 4.50221,0.24082 9.03457,0.36639 13.59607,0.36639 v -26.45886 c -124.36324,0 -224.89634,-100.53156 -224.89634,-224.8948 z m 52.9177,0 c 0,109.4373 89.0002,198.4375 198.4375,198.4375 v -26.45883 c -95.13819,0 -171.9802,-76.84048 -171.9802,-171.97867 z m 52.91616,0 c 0,80.2122 65.30912,145.51978 145.52134,145.5198 v -26.4573 c -65.91308,0 -119.0625,-53.14942 -119.0625,-119.0625 z m 52.91614,0 c 0,50.98717 41.61803,92.60367 92.6052,92.60367 v -26.45887 c -36.688,0 -66.14634,-29.4568 -66.14634,-66.1448 z m 52.9177,0 c 0,21.76214 17.92536,39.6875 39.6875,39.6875 v -26.45883 c -7.46295,0 -13.2302,-5.76572 -13.2302,-13.22867 z m -224.8979,171.97867 v 26.45883 c 36.688,0 66.14634,29.4568 66.14634,66.1448 h 26.45886 c 0,-50.98716 -41.61803,-92.60363 -92.6052,-92.60363 z m 0,52.91613 v 26.45886 c 7.46295,0 13.2302,5.7657 13.2302,13.22864 h 26.4573 c 0,-21.76214 -17.92536,-39.6875 -39.6875,-39.6875 z m 2e-5,-224.89481 H 376.61661 V 677.77158 H 112.03123 Z m 13.23018,-264.58229 c 0,4.56116 0.1251,9.0932 0.36587,13.59504 -4.50194,-0.24175 -9.0346,-0.36637 -13.59607,-0.36637 v 26.45883 c 5.53482,0 11.02175,0.2008 16.45534,0.59272 1.48926,9.21822 3.48102,18.26935 5.9464,27.12498 -7.35446,-0.83042 -14.82857,-1.2604 -22.40174,-1.2604 v 26.45887 c 10.97294,0 21.69973,1.02949 32.09571,2.98481 4.50355,10.92147 9.75481,21.4575 15.69,31.54485 -14.97579,-5.2256 -31.05541,-8.07083 -47.78571,-8.07083 v 26.4573 c 65.91308,0 119.0625,53.14942 119.0625,119.0625 h 26.45884 c 0,-16.72942 -2.84531,-32.80849 -8.0703,-47.78364 10.08878,5.93595 20.62692,11.18711 31.55,15.69103 1.95485,10.3945 2.97916,21.12129 2.97916,32.09261 h 26.4573 c 0,-7.57314 -0.43019,-15.04691 -1.2609,-22.40121 8.8564,2.46568 17.90848,4.45802 27.12755,5.94744 0.39171,5.4329 0.59219,10.91961 0.59219,16.45377 h 26.45886 c 0,-4.56104 -0.12406,-9.09352 -0.36587,-13.59503 4.50221,0.24082 9.03457,0.36639 13.59607,0.36639 v -26.45886 c -124.36324,0 -224.89634,-100.53156 -224.89634,-224.8948 z m 52.9177,0 c 0,109.4373 89.0002,198.4375 198.4375,198.4375 v -26.45883 c -95.13819,0 -171.9802,-76.84048 -171.9802,-171.97867 z m 52.91616,0 c 0,80.2122 65.30912,145.51978 145.52134,145.5198 v -26.4573 c -65.91308,0 -119.0625,-53.14942 -119.0625,-119.0625 z m 52.91614,0 c 0,50.98717 41.61803,92.60367 92.6052,92.60367 v -26.45887 c -36.688,0 -66.14634,-29.4568 -66.14634,-66.1448 z m 52.9177,0 c 0,21.76214 17.92536,39.6875 39.6875,39.6875 v -26.45883 c -7.46295,0 -13.2302,-5.76572 -13.2302,-13.22867 z m -224.8979,171.97867 v 26.45883 c 36.688,0 66.14634,29.4568 66.14634,66.1448 h 26.45886 c 0,-50.98716 -41.61803,-92.60363 -92.6052,-92.60363 z m 0,52.91613 v 26.45886 c 7.46295,0 13.2302,5.7657 13.2302,13.22864 h 26.4573 c 0,-21.76214 -17.92536,-39.6875 -39.6875,-39.6875 z m 2e-5,-224.89481 H 376.61661 V 413.18928 H 112.03123 Z m -251.35522,264.58231 c 0,4.56116 0.1251,9.0932 0.36587,13.59504 -4.50194,-0.24175 -9.0346,-0.36637 -13.59607,-0.36637 v 26.45883 c 5.53482,0 11.02175,0.2008 16.45534,0.59272 1.48926,9.21822 3.48102,18.26935 5.9464,27.12498 -7.35446,-0.83042 -14.82857,-1.2604 -22.40174,-1.2604 v 26.45887 c 10.97294,0 21.69973,1.02949 32.09571,2.98481 4.50355,10.92147 9.75481,21.4575 15.69,31.54485 -14.97579,-5.2256 -31.05541,-8.07083 -47.78571,-8.07083 v 26.4573 c 65.91308,0 119.0625,53.14942 119.0625,119.0625 h 26.45884 c 0,-16.72942 -2.84531,-32.80849 -8.0703,-47.78364 10.08878,5.93595 20.62692,11.18711 31.55,15.69103 1.95485,10.3945 2.97916,21.12129 2.97916,32.09261 h 26.4573 c 0,-7.57314 -0.43019,-15.04691 -1.2609,-22.40121 8.8564,2.46568 17.90848,4.45802 27.12755,5.94744 0.39171,5.4329 0.59219,10.91961 0.59219,16.45377 h 26.45886 c 0,-4.56104 -0.12406,-9.09352 -0.36587,-13.59503 4.50221,0.24082 9.03457,0.36639 13.59607,0.36639 v -26.45886 c -124.36324,0 -224.89634,-100.53156 -224.89634,-224.8948 z m 52.9177,0 c 0,109.4373 89.0002,198.4375 198.4375,198.4375 v -26.45883 c -95.13819,0 -171.9802,-76.84048 -171.9802,-171.97867 z m 52.91616,0 c 0,80.2122 65.30912,145.51978 145.52134,145.5198 v -26.4573 c -65.91308,0 -119.0625,-53.14942 -119.0625,-119.0625 z m 52.91614,0 c 0,50.98717 41.61803,92.60367 92.6052,92.60367 v -26.45887 c -36.688,0 -66.14634,-29.4568 -66.14634,-66.1448 z m 52.9177,0 c 0,21.76214 17.92536,39.6875 39.6875,39.6875 v -26.45883 c -7.46295,0 -13.2302,-5.76572 -13.2302,-13.22867 z m -224.8979,171.97867 v 26.45883 c 36.688,0 66.14634,29.4568 66.14634,66.1448 h 26.45886 c 0,-50.98716 -41.61803,-92.60363 -92.6052,-92.60363 z m 0,52.91613 v 26.45886 c 7.46295,0 13.2302,5.7657 13.2302,13.22864 h 26.4573 c 0,-21.76214 -17.92536,-39.6875 -39.6875,-39.6875 z m 2e-5,-224.89481 h 264.58538 v 264.58231 h -264.58538 z m 13.23018,-264.58229 c 0,4.56116 0.1251,9.0932 0.36587,13.59504 -4.50194,-0.24175 -9.0346,-0.36637 -13.59607,-0.36637 v 26.45883 c 5.53482,0 11.02175,0.2008 16.45534,0.59272 1.48926,9.21822 3.48102,18.26935 5.9464,27.12498 -7.35446,-0.83042 -14.82857,-1.2604 -22.40174,-1.2604 v 26.45887 c 10.97294,0 21.69973,1.02949 32.09571,2.98481 4.50355,10.92147 9.75481,21.4575 15.69,31.54485 -14.97579,-5.2256 -31.05541,-8.07083 -47.78571,-8.07083 v 26.4573 c 65.91308,0 119.0625,53.14942 119.0625,119.0625 h 26.45884 c 0,-16.72942 -2.84531,-32.80849 -8.0703,-47.78364 10.08878,5.93595 20.62692,11.18711 31.55,15.69103 1.95485,10.3945 2.97916,21.12129 2.97916,32.09261 h 26.4573 c 0,-7.57314 -0.43019,-15.04691 -1.2609,-22.40121 8.8564,2.46568 17.90848,4.45802 27.12755,5.94744 0.39171,5.4329 0.59219,10.91961 0.59219,16.45377 h 26.45886 c 0,-4.56104 -0.12406,-9.09352 -0.36587,-13.59503 4.50221,0.24082 9.03457,0.36639 13.59607,0.36639 v -26.45886 c -124.36324,0 -224.89634,-100.53156 -224.89634,-224.8948 z m 52.9177,0 c 0,109.4373 89.0002,198.4375 198.4375,198.4375 v -26.45883 c -95.13819,0 -171.9802,-76.84048 -171.9802,-171.97867 z m 52.91616,0 c 0,80.2122 65.30912,145.51978 145.52134,145.5198 v -26.4573 c -65.91308,0 -119.0625,-53.14942 -119.0625,-119.0625 z m 52.91614,0 c 0,50.98717 41.61803,92.60367 92.6052,92.60367 v -26.45887 c -36.688,0 -66.14634,-29.4568 -66.14634,-66.1448 z m 52.9177,0 c 0,21.76214 17.92536,39.6875 39.6875,39.6875 v -26.45883 c -7.46295,0 -13.2302,-5.76572 -13.2302,-13.22867 z m -224.8979,171.97867 v 26.45883 c 36.688,0 66.14634,29.4568 66.14634,66.1448 h 26.45886 c 0,-50.98716 -41.61803,-92.60363 -92.6052,-92.60363 z m 0,52.91613 v 26.45886 c 7.46295,0 13.2302,5.7657 13.2302,13.22864 h 26.4573 c 0,-21.76214 -17.92536,-39.6875 -39.6875,-39.6875 z m 2e-5,-224.89481 h 264.58538 v 264.58231 h -264.58538 z m 13.23018,1e-5 c 0,4.56116 0.1251,9.0932 0.36587,13.59504 -4.50194,-0.24175 -9.0346,-0.36637 -13.59607,-0.36637 v 26.45883 c 5.53482,0 11.02175,0.2008 16.45534,0.59272 1.48926,9.21822 3.48102,18.26935 5.9464,27.12498 -7.35446,-0.83042 -14.82857,-1.2604 -22.40174,-1.2604 v 26.45887 c 10.97294,0 21.69973,1.02949 32.09571,2.98481 4.50355,10.92147 9.75481,21.4575 15.69,31.54485 -14.97579,-5.2256 -31.05541,-8.07083 -47.78571,-8.07083 v 26.4573 c 65.91308,0 119.0625,53.14942 119.0625,119.0625 h 26.45884 c 0,-16.72942 -2.84531,-32.80849 -8.0703,-47.78364 10.08878,5.93595 20.62692,11.18711 31.55,15.69103 1.95485,10.3945 2.97916,21.12129 2.97916,32.09261 h 26.4573 c 0,-7.57314 -0.43019,-15.04691 -1.2609,-22.40121 8.8564,2.46568 17.90848,4.45802 27.12755,5.94744 0.39171,5.4329 0.59219,10.91961 0.59219,16.45377 h 26.45886 c 0,-4.56104 -0.12406,-9.09352 -0.36587,-13.59503 4.50221,0.24082 9.03457,0.36639 13.59607,0.36639 v -26.45886 c -124.36324,0 -224.89634,-100.53156 -224.89634,-224.8948 z m 52.9177,0 c 0,109.4373 89.0002,198.4375 198.4375,198.4375 v -26.45883 c -95.13819,0 -171.9802,-76.84048 -171.9802,-171.97867 z m 52.91616,0 c 0,80.2122 65.30912,145.51978 145.52134,145.5198 v -26.4573 c -65.91308,0 -119.0625,-53.14942 -119.0625,-119.0625 z m 52.91614,0 c 0,50.98717 41.61803,92.60367 92.6052,92.60367 v -26.45887 c -36.688,0 -66.14634,-29.4568 -66.14634,-66.1448 z m 52.9177,0 c 0,21.76214 17.92536,39.6875 39.6875,39.6875 v -26.45883 c -7.46295,0 -13.2302,-5.76572 -13.2302,-13.22867 z m -224.8979,171.97867 v 26.45883 c 36.688,0 66.14634,29.4568 66.14634,66.1448 h 26.45886 c 0,-50.98716 -41.61803,-92.60363 -92.6052,-92.60363 z m 0,52.91613 v 26.45886 c 7.46295,0 13.2302,5.7657 13.2302,13.22864 h 26.4573 c 0,-21.76214 -17.92536,-39.6875 -39.6875,-39.6875 z m 2e-5,-224.89481 h 264.58538 v 264.58231 h -264.58538 z m 806.98638,-264.58233 c 0,4.56116 0.1251,9.0932 0.36587,13.59504 -4.50194,-0.24175 -9.0346,-0.36637 -13.59607,-0.36637 v 26.45883 c 5.53482,0 11.02175,0.2008 16.45534,0.59272 1.48926,9.21822 3.48102,18.26935 5.9464,27.12498 -7.35446,-0.83042 -14.82857,-1.2604 -22.40174,-1.2604 v 26.45887 c 10.97294,0 21.69973,1.02949 32.09571,2.98481 4.50355,10.92147 9.75481,21.4575 15.69,31.54485 -14.97579,-5.2256 -31.05541,-8.07083 -47.78571,-8.07083 v 26.4573 c 65.91308,0 119.0625,53.14942 119.0625,119.0625 h 26.45884 c 0,-16.72942 -2.84531,-32.80849 -8.0703,-47.78364 10.08878,5.93595 20.62692,11.18711 31.55,15.69103 1.95485,10.3945 2.97916,21.12129 2.97916,32.09261 h 26.4573 c 0,-7.57314 -0.43019,-15.04691 -1.2609,-22.40121 8.8564,2.46568 17.90848,4.45802 27.12755,5.94744 0.39171,5.4329 0.59219,10.91961 0.59219,16.45377 h 26.45886 c 0,-4.56104 -0.12406,-9.09352 -0.36587,-13.59503 4.50221,0.24082 9.03457,0.36639 13.59607,0.36639 v -26.45886 c -124.36324,0 -224.89634,-100.53156 -224.89634,-224.8948 z m 52.9177,0 c 0,109.4373 89.0002,198.4375 198.4375,198.4375 V 56.00331 c -95.13819,0 -171.9802,-76.84048 -171.9802,-171.97867 z m 52.91616,0 c 0,80.2122 65.30912,145.51978 145.52134,145.5198 V 3.08714 c -65.91308,0 -119.0625,-53.14942 -119.0625,-119.0625 z m 52.91614,0 c 0,50.98717 41.61803,92.60367 92.6052,92.60367 v -26.45887 c -36.688,0 -66.14634,-29.4568 -66.14634,-66.1448 z m 52.9177,0 c 0,21.76214 17.92536,39.6875 39.6875,39.6875 v -26.45883 c -7.46295,0 -13.2302,-5.76572 -13.2302,-13.22867 z M 641.20201,56.00331 v 26.45883 c 36.688,0 66.14634,29.4568 66.14634,66.1448 h 26.45886 c 0,-50.98716 -41.61803,-92.60363 -92.6052,-92.60363 z m 0,52.91613 v 26.45886 c 7.46295,0 13.2302,5.7657 13.2302,13.22864 h 26.4573 c 0,-21.76214 -17.92536,-39.6875 -39.6875,-39.6875 z m 2e-5,-224.89481 H 905.78741 V 148.60694 H 641.20203 Z m 13.23018,-264.58229 c 0,4.56116 0.1251,9.0932 0.36587,13.59504 -4.50194,-0.24175 -9.0346,-0.36637 -13.59607,-0.36637 v 26.45883 c 5.53482,0 11.02175,0.2008 16.45534,0.59272 1.48926,9.21822 3.48102,18.26935 5.9464,27.12498 -7.35446,-0.83042 -14.82857,-1.2604 -22.40174,-1.2604 v 26.45887 c 10.97294,0 21.69973,1.02949 32.09571,2.98481 4.50355,10.92147 9.75481,21.4575 15.69,31.54485 -14.97579,-5.2256 -31.05541,-8.07083 -47.78571,-8.07083 v 26.4573 c 65.91308,0 119.0625,53.14942 119.0625,119.0625 h 26.45884 c 0,-16.72942 -2.84531,-32.80849 -8.0703,-47.78364 10.08878,5.93595 20.62692,11.18711 31.55,15.69103 1.95485,10.3945 2.97916,21.12129 2.97916,32.09261 h 26.4573 c 0,-7.57314 -0.43019,-15.04691 -1.2609,-22.40121 8.8564,2.46568 17.90848,4.45802 27.12755,5.94744 0.39171,5.4329 0.59219,10.91961 0.59219,16.45377 h 26.45886 c 0,-4.56104 -0.12406,-9.09352 -0.36587,-13.59503 4.50221,0.24082 9.03457,0.36639 13.59607,0.36639 v -26.45886 c -124.36324,0 -224.89634,-100.53156 -224.89634,-224.8948 z m 52.9177,0 c 0,109.4373 89.0002,198.4375 198.4375,198.4375 v -26.45883 c -95.13819,0 -171.9802,-76.84048 -171.9802,-171.97867 z m 52.91616,0 c 0,80.2122 65.30912,145.51978 145.52134,145.5198 v -26.4573 c -65.91308,0 -119.0625,-53.14942 -119.0625,-119.0625 z m 52.91614,0 c 0,50.98717 41.61803,92.60367 92.6052,92.60367 v -26.45887 c -36.688,0 -66.14634,-29.4568 -66.14634,-66.1448 z m 52.9177,0 c 0,21.76214 17.92536,39.6875 39.6875,39.6875 v -26.45883 c -7.46295,0 -13.2302,-5.76572 -13.2302,-13.22867 z m -224.8979,171.97867 v 26.45883 c 36.688,0 66.14634,29.4568 66.14634,66.1448 h 26.45886 c 0,-50.98716 -41.61803,-92.60363 -92.6052,-92.60363 z m 0,52.91613 v 26.45886 c 7.46295,0 13.2302,5.7657 13.2302,13.22864 h 26.4573 c 0,-21.76214 -17.92536,-39.6875 -39.6875,-39.6875 z m 2e-5,-224.89481 h 264.58538 v 264.58231 H 641.20203 Z m -251.35522,264.58231 c 0,4.56116 0.1251,9.0932 0.36587,13.59504 -4.50194,-0.24175 -9.0346,-0.36637 -13.59607,-0.36637 v 26.45883 c 5.53482,0 11.02175,0.2008 16.45534,0.59272 1.48926,9.21822 3.48102,18.26935 5.9464,27.12498 -7.35446,-0.83042 -14.82857,-1.2604 -22.40174,-1.2604 v 26.45887 c 10.97294,0 21.69973,1.02949 32.09571,2.98481 4.50355,10.92147 9.75481,21.4575 15.69,31.54485 -14.97579,-5.2256 -31.05541,-8.07083 -47.78571,-8.07083 v 26.4573 c 65.91308,0 119.0625,53.14942 119.0625,119.0625 h 26.45884 c 0,-16.72942 -2.84531,-32.80849 -8.0703,-47.78364 10.08878,5.93595 20.62692,11.18711 31.55,15.69103 1.95485,10.3945 2.97916,21.12129 2.97916,32.09261 h 26.4573 c 0,-7.57314 -0.43019,-15.04691 -1.2609,-22.40121 8.8564,2.46568 17.90848,4.45802 27.12755,5.94744 0.39171,5.4329 0.59219,10.91961 0.59219,16.45377 h 26.45886 c 0,-4.56104 -0.12406,-9.09352 -0.36587,-13.59503 4.50221,0.24082 9.03457,0.36639 13.59607,0.36639 v -26.45886 c -124.36324,0 -224.89634,-100.53156 -224.89634,-224.8948 z m 52.9177,0 c 0,109.4373 89.0002,198.4375 198.4375,198.4375 V 56.00331 c -95.13819,0 -171.9802,-76.84048 -171.9802,-171.97867 z m 52.91616,0 c 0,80.2122 65.30912,145.51978 145.52134,145.5198 V 3.08714 c -65.91308,0 -119.0625,-53.14942 -119.0625,-119.0625 z m 52.91614,0 c 0,50.98717 41.61803,92.60367 92.6052,92.60367 v -26.45887 c -36.688,0 -66.14634,-29.4568 -66.14634,-66.1448 z m 52.9177,0 c 0,21.76214 17.92536,39.6875 39.6875,39.6875 v -26.45883 c -7.46295,0 -13.2302,-5.76572 -13.2302,-13.22867 z M 376.61661,56.00331 v 26.45883 c 36.688,0 66.14634,29.4568 66.14634,66.1448 h 26.45886 c 0,-50.98716 -41.61803,-92.60363 -92.6052,-92.60363 z m 0,52.91613 v 26.45886 c 7.46295,0 13.2302,5.7657 13.2302,13.22864 h 26.4573 c 0,-21.76214 -17.92536,-39.6875 -39.6875,-39.6875 z m 2e-5,-224.89481 H 641.20201 V 148.60694 H 376.61663 Z m 13.23018,-264.58229 c 0,4.56116 0.1251,9.0932 0.36587,13.59504 -4.50194,-0.24175 -9.0346,-0.36637 -13.59607,-0.36637 v 26.45883 c 5.53482,0 11.02175,0.2008 16.45534,0.59272 1.48926,9.21822 3.48102,18.26935 5.9464,27.12498 -7.35446,-0.83042 -14.82857,-1.2604 -22.40174,-1.2604 v 26.45887 c 10.97294,0 21.69973,1.02949 32.09571,2.98481 4.50355,10.92147 9.75481,21.4575 15.69,31.54485 -14.97579,-5.2256 -31.05541,-8.07083 -47.78571,-8.07083 v 26.4573 c 65.91308,0 119.0625,53.14942 119.0625,119.0625 h 26.45884 c 0,-16.72942 -2.84531,-32.80849 -8.0703,-47.78364 10.08878,5.93595 20.62692,11.18711 31.55,15.69103 1.95485,10.3945 2.97916,21.12129 2.97916,32.09261 h 26.4573 c 0,-7.57314 -0.43019,-15.04691 -1.2609,-22.40121 8.8564,2.46568 17.90848,4.45802 27.12755,5.94744 0.39171,5.4329 0.59219,10.91961 0.59219,16.45377 h 26.45886 c 0,-4.56104 -0.12406,-9.09352 -0.36587,-13.59503 4.50221,0.24082 9.03457,0.36639 13.59607,0.36639 v -26.45886 c -124.36324,0 -224.89634,-100.53156 -224.89634,-224.8948 z m 52.9177,0 c 0,109.4373 89.0002,198.4375 198.4375,198.4375 v -26.45883 c -95.13819,0 -171.9802,-76.84048 -171.9802,-171.97867 z m 52.91616,0 c 0,80.2122 65.30912,145.51978 145.52134,145.5198 v -26.4573 c -65.91308,0 -119.0625,-53.14942 -119.0625,-119.0625 z m 52.91614,0 c 0,50.98717 41.61803,92.60367 92.6052,92.60367 v -26.45887 c -36.688,0 -66.14634,-29.4568 -66.14634,-66.1448 z m 52.9177,0 c 0,21.76214 17.92536,39.6875 39.6875,39.6875 v -26.45883 c -7.46295,0 -13.2302,-5.76572 -13.2302,-13.22867 z m -224.8979,171.97867 v 26.45883 c 36.688,0 66.14634,29.4568 66.14634,66.1448 h 26.45886 c 0,-50.98716 -41.61803,-92.60363 -92.6052,-92.60363 z m 0,52.91613 v 26.45886 c 7.46295,0 13.2302,5.7657 13.2302,13.22864 h 26.4573 c 0,-21.76214 -17.92536,-39.6875 -39.6875,-39.6875 z m 2e-5,-224.89481 h 264.58538 v 264.58231 H 376.61663 Z m 13.23018,10e-6 c 0,4.56116 0.1251,9.0932 0.36587,13.59504 -4.50194,-0.24175 -9.0346,-0.36637 -13.59607,-0.36637 v 26.45883 c 5.53482,0 11.02175,0.2008 16.45534,0.59272 1.48926,9.21822 3.48102,18.26935 5.9464,27.12498 -7.35446,-0.83042 -14.82857,-1.2604 -22.40174,-1.2604 v 26.45887 c 10.97294,0 21.69973,1.02949 32.09571,2.98481 4.50355,10.92147 9.75481,21.4575 15.69,31.54485 -14.97579,-5.2256 -31.05541,-8.07083 -47.78571,-8.07083 v 26.4573 c 65.91308,0 119.0625,53.14942 119.0625,119.0625 h 26.45884 c 0,-16.72942 -2.84531,-32.80849 -8.0703,-47.78364 10.08878,5.93595 20.62692,11.18711 31.55,15.69103 1.95485,10.3945 2.97916,21.12129 2.97916,32.09261 h 26.4573 c 0,-7.57314 -0.43019,-15.04691 -1.2609,-22.40121 8.8564,2.46568 17.90848,4.45802 27.12755,5.94744 0.39171,5.4329 0.59219,10.91961 0.59219,16.45377 h 26.45886 c 0,-4.56104 -0.12406,-9.09352 -0.36587,-13.59503 4.50221,0.24082 9.03457,0.36639 13.59607,0.36639 v -26.45886 c -124.36324,0 -224.89634,-100.53156 -224.89634,-224.8948 z m 52.9177,0 c 0,109.4373 89.0002,198.4375 198.4375,198.4375 v -26.45883 c -95.13819,0 -171.9802,-76.84048 -171.9802,-171.97867 z m 52.91616,0 c 0,80.2122 65.30912,145.51978 145.52134,145.5198 v -26.4573 c -65.91308,0 -119.0625,-53.14942 -119.0625,-119.0625 z m 52.91614,0 c 0,50.98717 41.61803,92.60367 92.6052,92.60367 v -26.45887 c -36.688,0 -66.14634,-29.4568 -66.14634,-66.1448 z m 52.9177,0 c 0,21.76214 17.92536,39.6875 39.6875,39.6875 v -26.45883 c -7.46295,0 -13.2302,-5.76572 -13.2302,-13.22867 z m -224.8979,171.97867 v 26.45883 c 36.688,0 66.14634,29.4568 66.14634,66.1448 h 26.45886 c 0,-50.98716 -41.61803,-92.60363 -92.6052,-92.60363 z m 0,52.91613 v 26.45886 c 7.46295,0 13.2302,5.7657 13.2302,13.22864 h 26.4573 c 0,-21.76214 -17.92536,-39.6875 -39.6875,-39.6875 z m 2e-5,-224.89481 h 264.58538 v 264.58231 H 376.61663 Z m -251.35522,264.58231 c 0,4.56116 0.1251,9.0932 0.36587,13.59504 -4.50194,-0.24175 -9.0346,-0.36637 -13.59607,-0.36637 v 26.45883 c 5.53482,0 11.02175,0.2008 16.45534,0.59272 1.48926,9.21822 3.48102,18.26935 5.9464,27.12498 -7.35446,-0.83042 -14.82857,-1.2604 -22.40174,-1.2604 v 26.45887 c 10.97294,0 21.69973,1.02949 32.09571,2.98481 4.50355,10.92147 9.75481,21.4575 15.69,31.54485 -14.97579,-5.2256 -31.05541,-8.07083 -47.78571,-8.07083 v 26.4573 c 65.91308,0 119.0625,53.14942 119.0625,119.0625 h 26.45884 c 0,-16.72942 -2.84531,-32.80849 -8.0703,-47.78364 10.08878,5.93595 20.62692,11.18711 31.55,15.69103 1.95485,10.3945 2.97916,21.12129 2.97916,32.09261 h 26.4573 c 0,-7.57314 -0.43019,-15.04691 -1.2609,-22.40121 8.8564,2.46568 17.90848,4.45802 27.12755,5.94744 0.39171,5.4329 0.59219,10.91961 0.59219,16.45377 h 26.45886 c 0,-4.56104 -0.12406,-9.09352 -0.36587,-13.59503 4.50221,0.24082 9.03457,0.36639 13.59607,0.36639 v -26.45886 c -124.36324,0 -224.89634,-100.53156 -224.89634,-224.8948 z m 52.9177,0 c 0,109.4373 89.0002,198.4375 198.4375,198.4375 V 56.00331 c -95.13819,0 -171.9802,-76.84048 -171.9802,-171.97867 z m 52.91616,0 c 0,80.2122 65.30912,145.51978 145.52134,145.5198 V 3.08714 c -65.91308,0 -119.0625,-53.14942 -119.0625,-119.0625 z m 52.91614,0 c 0,50.98717 41.61803,92.60367 92.6052,92.60367 v -26.45887 c -36.688,0 -66.14634,-29.4568 -66.14634,-66.1448 z m 52.9177,0 c 0,21.76214 17.92536,39.6875 39.6875,39.6875 v -26.45883 c -7.46295,0 -13.2302,-5.76572 -13.2302,-13.22867 z M 112.03121,56.00331 v 26.45883 c 36.688,0 66.14634,29.4568 66.14634,66.1448 h 26.45886 c 0,-50.98716 -41.61803,-92.60363 -92.6052,-92.60363 z m 0,52.91613 v 26.45886 c 7.46295,0 13.2302,5.7657 13.2302,13.22864 h 26.4573 c 0,-21.76214 -17.92536,-39.6875 -39.6875,-39.6875 z m 2e-5,-224.89481 H 376.61661 V 148.60694 H 112.03123 Z m 13.23174,-264.58229 c 0,4.56116 0.1251,9.0932 0.36587,13.59504 -4.50194,-0.24175 -9.0346,-0.36637 -13.59607,-0.36637 v 26.45883 c 5.53482,0 11.02175,0.2008 16.45534,0.59272 1.48926,9.21822 3.48102,18.26935 5.9464,27.12498 -7.35446,-0.83042 -14.82857,-1.2604 -22.40174,-1.2604 v 26.45887 c 10.97294,0 21.69973,1.02949 32.09571,2.98481 4.50355,10.92147 9.75481,21.4575 15.69,31.54485 -14.97579,-5.2256 -31.05541,-8.07083 -47.78571,-8.07083 v 26.4573 c 65.91308,0 119.0625,53.14942 119.0625,119.0625 h 26.45884 c 0,-16.72942 -2.84531,-32.80849 -8.0703,-47.78364 10.08878,5.93595 20.62692,11.18711 31.55,15.69103 1.95485,10.3945 2.97916,21.12129 2.97916,32.09261 h 26.4573 c 0,-7.57314 -0.43019,-15.04691 -1.2609,-22.40121 8.8564,2.46568 17.90848,4.45802 27.12755,5.94744 0.39171,5.4329 0.59219,10.91961 0.59219,16.45377 h 26.45886 c 0,-4.56104 -0.12406,-9.09352 -0.36587,-13.59503 4.50221,0.24082 9.03457,0.36639 13.59607,0.36639 v -26.45886 c -124.36324,0 -224.89634,-100.53156 -224.89634,-224.8948 z m 52.9177,0 c 0,109.4373 89.0002,198.4375 198.4375,198.4375 v -26.45883 c -95.13819,0 -171.9802,-76.84048 -171.9802,-171.97867 z m 52.91616,0 c 0,80.2122 65.30912,145.51978 145.52134,145.5198 v -26.4573 c -65.91308,0 -119.0625,-53.14942 -119.0625,-119.0625 z m 52.91614,0 c 0,50.98717 41.61803,92.60367 92.6052,92.60367 v -26.45887 c -36.688,0 -66.14634,-29.4568 -66.14634,-66.1448 z m 52.9177,0 c 0,21.76214 17.92536,39.6875 39.6875,39.6875 v -26.45883 c -7.46295,0 -13.2302,-5.76572 -13.2302,-13.22867 z m -224.8979,171.97867 v 26.45883 c 36.688,0 66.14634,29.4568 66.14634,66.1448 h 26.45886 c 0,-50.98716 -41.61803,-92.60363 -92.6052,-92.60363 z m 0,52.91613 v 26.45886 c 7.46295,0 13.2302,5.7657 13.2302,13.22864 h 26.4573 c 0,-21.76214 -17.92536,-39.6875 -39.6875,-39.6875 z m 2e-5,-224.89481 h 264.58538 v 264.58231 H 112.03279 Z m -251.35678,264.58231 c 0,4.56116 0.1251,9.0932 0.36587,13.59504 -4.50194,-0.24175 -9.0346,-0.36637 -13.59607,-0.36637 v 26.45883 c 5.53482,0 11.02175,0.2008 16.45534,0.59272 1.48926,9.21822 3.48102,18.26935 5.9464,27.12498 -7.35446,-0.83042 -14.82857,-1.2604 -22.40174,-1.2604 v 26.45887 c 10.97294,0 21.69973,1.02949 32.09571,2.98481 4.50355,10.92147 9.75481,21.4575 15.69,31.54485 -14.97579,-5.2256 -31.05541,-8.07083 -47.78571,-8.07083 v 26.4573 c 65.91308,0 119.0625,53.14942 119.0625,119.0625 h 26.45884 c 0,-16.72942 -2.84531,-32.80849 -8.0703,-47.78364 10.08878,5.93595 20.62692,11.18711 31.55,15.69103 1.95485,10.3945 2.97916,21.12129 2.97916,32.09261 h 26.4573 c 0,-7.57314 -0.43019,-15.04691 -1.2609,-22.40121 8.8564,2.46568 17.90848,4.45802 27.12755,5.94744 0.39171,5.4329 0.59219,10.91961 0.59219,16.45377 h 26.45886 c 0,-4.56104 -0.12406,-9.09352 -0.36587,-13.59503 4.50221,0.24082 9.03457,0.36639 13.59607,0.36639 v -26.45886 c -124.36324,0 -224.89634,-100.53156 -224.89634,-224.8948 z m 52.9177,0 c 0,109.4373 89.0002,198.4375 198.4375,198.4375 V 56.00331 c -95.13819,0 -171.9802,-76.84048 -171.9802,-171.97867 z m 52.91616,0 c 0,80.2122 65.30912,145.51978 145.52134,145.5198 V 3.08714 c -65.91308,0 -119.0625,-53.14942 -119.0625,-119.0625 z m 52.91614,0 c 0,50.98717 41.61803,92.60367 92.6052,92.60367 v -26.45887 c -36.688,0 -66.14634,-29.4568 -66.14634,-66.1448 z m 52.9177,0 c 0,21.76214 17.92536,39.6875 39.6875,39.6875 v -26.45883 c -7.46295,0 -13.2302,-5.76572 -13.2302,-13.22867 z m -224.8979,171.97867 v 26.45883 c 36.688,0 66.14634,29.4568 66.14634,66.1448 h 26.45886 c 0,-50.98716 -41.61803,-92.60363 -92.6052,-92.60363 z m 0,52.91613 v 26.45886 c 7.46295,0 13.2302,5.7657 13.2302,13.22864 h 26.4573 c 0,-21.76214 -17.92536,-39.6875 -39.6875,-39.6875 z m 2e-5,-224.89481 h 264.58538 v 264.58231 h -264.58538 z m 13.23018,-264.58229 c 0,4.56116 0.1251,9.0932 0.36587,13.59504 -4.50194,-0.24175 -9.0346,-0.36637 -13.59607,-0.36637 v 26.45883 c 5.53482,0 11.02175,0.2008 16.45534,0.59272 1.48926,9.21822 3.48102,18.26935 5.9464,27.12498 -7.35446,-0.83042 -14.82857,-1.2604 -22.40174,-1.2604 v 26.45887 c 10.97294,0 21.69973,1.02949 32.09571,2.98481 4.50355,10.92147 9.75481,21.4575 15.69,31.54485 -14.97579,-5.2256 -31.05541,-8.07083 -47.78571,-8.07083 v 26.4573 c 65.91308,0 119.0625,53.14942 119.0625,119.0625 h 26.45884 c 0,-16.72942 -2.84531,-32.80849 -8.0703,-47.78364 10.08878,5.93595 20.62692,11.18711 31.55,15.69103 1.95485,10.3945 2.97916,21.12129 2.97916,32.09261 h 26.4573 c 0,-7.57314 -0.43019,-15.04691 -1.2609,-22.40121 8.8564,2.46568 17.90848,4.45802 27.12755,5.94744 0.39171,5.4329 0.59219,10.91961 0.59219,16.45377 h 26.45886 c 0,-4.56104 -0.12406,-9.09352 -0.36587,-13.59503 4.50221,0.24082 9.03457,0.36639 13.59607,0.36639 v -26.45886 c -124.36324,0 -224.89634,-100.53156 -224.89634,-224.8948 z m 52.9177,0 c 0,109.4373 89.0002,198.4375 198.4375,198.4375 v -26.45883 c -95.13819,0 -171.9802,-76.84048 -171.9802,-171.97867 z m 52.91616,0 c 0,80.2122 65.30912,145.51978 145.52134,145.5198 v -26.4573 c -65.91308,0 -119.0625,-53.14942 -119.0625,-119.0625 z m 52.91614,0 c 0,50.98717 41.61803,92.60367 92.6052,92.60367 v -26.45887 c -36.688,0 -66.14634,-29.4568 -66.14634,-66.1448 z m 52.9177,0 c 0,21.76214 17.92536,39.6875 39.6875,39.6875 v -26.45883 c -7.46295,0 -13.2302,-5.76572 -13.2302,-13.22867 z m -224.8979,171.97867 v 26.45883 c 36.688,0 66.14634,29.4568 66.14634,66.1448 h 26.45886 c 0,-50.98716 -41.61803,-92.60363 -92.6052,-92.60363 z m 0,52.91613 v 26.45886 c 7.46295,0 13.2302,5.7657 13.2302,13.22864 h 26.4573 c 0,-21.76214 -17.92536,-39.6875 -39.6875,-39.6875 z m 2e-5,-224.89481 h 264.58538 v 264.58231 h -264.58538 z m 13.23018,10e-6 c 0,4.56116 0.1251,9.0932 0.36587,13.59504 -4.50194,-0.24175 -9.0346,-0.36637 -13.59607,-0.36637 v 26.45883 c 5.53482,0 11.02175,0.2008 16.45534,0.59272 1.48926,9.21822 3.48102,18.26935 5.9464,27.12498 -7.35446,-0.83042 -14.82857,-1.2604 -22.40174,-1.2604 v 26.45887 c 10.97294,0 21.69973,1.02949 32.09571,2.98481 4.50355,10.92147 9.75481,21.4575 15.69,31.54485 -14.97579,-5.2256 -31.05541,-8.07083 -47.78571,-8.07083 v 26.4573 c 65.91308,0 119.0625,53.14942 119.0625,119.0625 h 26.45884 c 0,-16.72942 -2.84531,-32.80849 -8.0703,-47.78364 10.08878,5.93595 20.62692,11.18711 31.55,15.69103 1.95485,10.3945 2.97916,21.12129 2.97916,32.09261 h 26.4573 c 0,-7.57314 -0.43019,-15.04691 -1.2609,-22.40121 8.8564,2.46568 17.90848,4.45802 27.12755,5.94744 0.39171,5.4329 0.59219,10.91961 0.59219,16.45377 h 26.45886 c 0,-4.56104 -0.12406,-9.09352 -0.36587,-13.59503 4.50221,0.24082 9.03457,0.36639 13.59607,0.36639 v -26.45886 c -124.36324,0 -224.89634,-100.53156 -224.89634,-224.8948 z m 52.9177,0 c 0,109.4373 89.0002,198.4375 198.4375,198.4375 v -26.45883 c -95.13819,0 -171.9802,-76.84048 -171.9802,-171.97867 z m 52.91616,0 c 0,80.2122 65.30912,145.51978 145.52134,145.5198 v -26.4573 c -65.91308,0 -119.0625,-53.14942 -119.0625,-119.0625 z m 52.91614,0 c 0,50.98717 41.61803,92.60367 92.6052,92.60367 v -26.45887 c -36.688,0 -66.14634,-29.4568 -66.14634,-66.1448 z m 52.9177,0 c 0,21.76214 17.92536,39.6875 39.6875,39.6875 v -26.45883 c -7.46295,0 -13.2302,-5.76572 -13.2302,-13.22867 z m -224.8979,171.97867 v 26.45883 c 36.688,0 66.14634,29.4568 66.14634,66.1448 h 26.45886 c 0,-50.98716 -41.61803,-92.60363 -92.6052,-92.60363 z m 0,52.91613 v 26.45886 c 7.46295,0 13.2302,5.7657 13.2302,13.22864 h 26.4573 c 0,-21.76214 -17.92536,-39.6875 -39.6875,-39.6875 z m 2e-5,-224.89481 h 264.58538 v 264.58231 h -264.58538 z" />
      </g>
    </g>
  </g>
</svg>
